<?xml version="1.0" encoding="UTF-8" standalone="no"?><svg xmlns="http://www.w3.org/2000/svg" xmlns:xlink="http://www.w3.org/1999/xlink" contentStyleType="text/css" height="1140px" preserveAspectRatio="none" style="width:2475px;height:1140px;background:#FFFFFF;" version="1.1" viewBox="0 0 2475 1140" width="2475px" zoomAndPan="magnify"><defs/><g><rect fill="#FFFFFF" height="956.5547" style="stroke:#181818;stroke-width:1.0;" width="10" x="362" y="92.6094"/><rect fill="#FFFFFF" height="732.3359" style="stroke:#181818;stroke-width:1.0;" width="10" x="891" y="207.8945"/><rect fill="#FFFFFF" height="425.5469" style="stroke:#181818;stroke-width:1.0;" width="10" x="1076" y="331.1797"/><rect fill="#FFFFFF" height="30" style="stroke:#181818;stroke-width:1.0;" width="10" x="1227" y="606.1563"/><rect fill="#FFFFFF" height="30" style="stroke:#181818;stroke-width:1.0;" width="10" x="2022" y="421.8828"/><rect fill="#FFFFFF" height="30" style="stroke:#181818;stroke-width:1.0;" width="10" x="2174.5" y="361.5313"/><rect fill="#FFFFFF" height="30" style="stroke:#181818;stroke-width:1.0;" width="10" x="2361.5" y="726.7266"/><rect fill="none" height="574.2813" style="stroke:#000000;stroke-width:1.5;" width="2360.5" x="108" y="466.8828"/><line style="stroke:#181818;stroke-width:0.5;stroke-dasharray:5.0,5.0;" x1="367" x2="367" y1="82.6094" y2="1058.1641"/><line style="stroke:#181818;stroke-width:0.5;stroke-dasharray:5.0,5.0;" x1="895.5" x2="895.5" y1="82.6094" y2="1058.1641"/><line style="stroke:#181818;stroke-width:0.5;stroke-dasharray:5.0,5.0;" x1="1081" x2="1081" y1="82.6094" y2="1058.1641"/><line style="stroke:#181818;stroke-width:0.5;stroke-dasharray:5.0,5.0;" x1="1231.5" x2="1231.5" y1="82.6094" y2="1058.1641"/><line style="stroke:#181818;stroke-width:0.5;stroke-dasharray:5.0,5.0;" x1="1436.5" x2="1436.5" y1="804.8359" y2="1058.1641"/><line style="stroke:#181818;stroke-width:0.5;stroke-dasharray:5.0,5.0;" x1="1667.5" x2="1667.5" y1="82.6094" y2="1058.1641"/><line style="stroke:#181818;stroke-width:0.5;stroke-dasharray:5.0,5.0;" x1="1797.5" x2="1797.5" y1="82.6094" y2="1058.1641"/><line style="stroke:#181818;stroke-width:0.5;stroke-dasharray:5.0,5.0;" x1="1901.5" x2="1901.5" y1="684.2656" y2="1058.1641"/><line style="stroke:#181818;stroke-width:0.5;stroke-dasharray:5.0,5.0;" x1="2026.5" x2="2026.5" y1="82.6094" y2="1058.1641"/><line style="stroke:#181818;stroke-width:0.5;stroke-dasharray:5.0,5.0;" x1="2179.5" x2="2179.5" y1="82.6094" y2="1058.1641"/><line style="stroke:#181818;stroke-width:0.5;stroke-dasharray:5.0,5.0;" x1="2366.5" x2="2366.5" y1="82.6094" y2="1058.1641"/><text fill="#000000" font-family="sans-serif" font-size="14" lengthAdjust="spacing" textLength="58" x="335" y="79.5332">WebUser</text><ellipse cx="367" cy="13.5" fill="#E2E2F0" rx="8" ry="8" style="stroke:#181818;stroke-width:0.5;"/><path d="M367,21.5 L367,48.5 M354,29.5 L380,29.5 M367,48.5 L354,63.5 M367,48.5 L380,63.5 " fill="none" style="stroke:#181818;stroke-width:0.5;"/><text fill="#000000" font-family="sans-serif" font-size="14" lengthAdjust="spacing" textLength="58" x="335" y="1071.6973">WebUser</text><ellipse cx="367" cy="1083.2734" fill="#E2E2F0" rx="8" ry="8" style="stroke:#181818;stroke-width:0.5;"/><path d="M367,1091.2734 L367,1118.2734 M354,1099.2734 L380,1099.2734 M367,1118.2734 L354,1133.2734 M367,1118.2734 L380,1133.2734 " fill="none" style="stroke:#181818;stroke-width:0.5;"/><rect fill="#E2E2F0" height="49.2188" rx="2.5" ry="2.5" style="stroke:#181818;stroke-width:0.5;" width="107" x="842.5" y="32.3906"/><text fill="#000000" font-family="sans-serif" font-size="14" font-style="italic" lengthAdjust="spacing" textLength="78" x="857" y="53.9238">«Controller»</text><text fill="#000000" font-family="sans-serif" font-size="14" lengthAdjust="spacing" textLength="93" x="849.5" y="71.5332">:IdeaController</text><rect fill="#E2E2F0" height="49.2188" rx="2.5" ry="2.5" style="stroke:#181818;stroke-width:0.5;" width="107" x="842.5" y="1057.1641"/><text fill="#000000" font-family="sans-serif" font-size="14" font-style="italic" lengthAdjust="spacing" textLength="78" x="857" y="1078.6973">«Controller»</text><text fill="#000000" font-family="sans-serif" font-size="14" lengthAdjust="spacing" textLength="93" x="849.5" y="1096.3066">:IdeaController</text><rect fill="#E2E2F0" height="49.2188" rx="2.5" ry="2.5" style="stroke:#181818;stroke-width:0.5;" width="92" x="1035" y="32.3906"/><text fill="#000000" font-family="sans-serif" font-size="14" font-style="italic" lengthAdjust="spacing" textLength="62" x="1050" y="53.9238">«Service»</text><text fill="#000000" font-family="sans-serif" font-size="14" lengthAdjust="spacing" textLength="78" x="1042" y="71.5332">:IdeaService</text><rect fill="#E2E2F0" height="49.2188" rx="2.5" ry="2.5" style="stroke:#181818;stroke-width:0.5;" width="92" x="1035" y="1057.1641"/><text fill="#000000" font-family="sans-serif" font-size="14" font-style="italic" lengthAdjust="spacing" textLength="62" x="1050" y="1078.6973">«Service»</text><text fill="#000000" font-family="sans-serif" font-size="14" lengthAdjust="spacing" textLength="78" x="1042" y="1096.3066">:IdeaService</text><rect fill="#E2E2F0" height="49.2188" rx="2.5" ry="2.5" style="stroke:#181818;stroke-width:0.5;" width="113" x="1175.5" y="32.3906"/><text fill="#000000" font-family="sans-serif" font-size="14" font-style="italic" lengthAdjust="spacing" textLength="84" x="1190" y="53.9238">«Repository»</text><text fill="#000000" font-family="sans-serif" font-size="14" lengthAdjust="spacing" textLength="99" x="1182.5" y="71.5332">:IdeaRepository</text><rect fill="#E2E2F0" height="49.2188" rx="2.5" ry="2.5" style="stroke:#181818;stroke-width:0.5;" width="113" x="1175.5" y="1057.1641"/><text fill="#000000" font-family="sans-serif" font-size="14" font-style="italic" lengthAdjust="spacing" textLength="84" x="1190" y="1078.6973">«Repository»</text><text fill="#000000" font-family="sans-serif" font-size="14" lengthAdjust="spacing" textLength="99" x="1182.5" y="1096.3066">:IdeaRepository</text><rect fill="#E2E2F0" height="49.2188" rx="2.5" ry="2.5" style="stroke:#181818;stroke-width:0.5;" width="276" x="1298.5" y="1057.1641"/><text fill="#000000" font-family="sans-serif" font-size="14" font-style="italic" lengthAdjust="spacing" textLength="51" x="1411" y="1078.6973">«Entity»</text><text fill="#000000" font-family="sans-serif" font-size="14" lengthAdjust="spacing" textLength="262" x="1305.5" y="1096.3066">responseEntity:ResponseEntity&lt;IdeaDto&gt;</text><rect fill="#E2E2F0" height="49.2188" rx="2.5" ry="2.5" style="stroke:#181818;stroke-width:0.5;" width="167" x="1584.5" y="32.3906"/><text fill="#000000" font-family="sans-serif" font-size="14" font-style="italic" lengthAdjust="spacing" textLength="51" x="1642.5" y="53.9238">«Entity»</text><text fill="#000000" font-family="sans-serif" font-size="14" lengthAdjust="spacing" textLength="153" x="1591.5" y="71.5332">newIdeaDto:NewIdeaDto</text><rect fill="#E2E2F0" height="49.2188" rx="2.5" ry="2.5" style="stroke:#181818;stroke-width:0.5;" width="167" x="1584.5" y="1057.1641"/><text fill="#000000" font-family="sans-serif" font-size="14" font-style="italic" lengthAdjust="spacing" textLength="51" x="1642.5" y="1078.6973">«Entity»</text><text fill="#000000" font-family="sans-serif" font-size="14" lengthAdjust="spacing" textLength="153" x="1591.5" y="1096.3066">newIdeaDto:NewIdeaDto</text><rect fill="#E2E2F0" height="49.2188" rx="2.5" ry="2.5" style="stroke:#181818;stroke-width:0.5;" width="72" x="1761.5" y="32.3906"/><text fill="#000000" font-family="sans-serif" font-size="14" font-style="italic" lengthAdjust="spacing" textLength="51" x="1772" y="53.9238">«Entity»</text><text fill="#000000" font-family="sans-serif" font-size="14" lengthAdjust="spacing" textLength="58" x="1768.5" y="71.5332">idea:Idea</text><rect fill="#E2E2F0" height="49.2188" rx="2.5" ry="2.5" style="stroke:#181818;stroke-width:0.5;" width="72" x="1761.5" y="1057.1641"/><text fill="#000000" font-family="sans-serif" font-size="14" font-style="italic" lengthAdjust="spacing" textLength="51" x="1772" y="1078.6973">«Entity»</text><text fill="#000000" font-family="sans-serif" font-size="14" lengthAdjust="spacing" textLength="58" x="1768.5" y="1096.3066">idea:Idea</text><rect fill="#E2E2F0" height="49.2188" rx="2.5" ry="2.5" style="stroke:#181818;stroke-width:0.5;" width="116" x="1843.5" y="1057.1641"/><text fill="#000000" font-family="sans-serif" font-size="14" font-style="italic" lengthAdjust="spacing" textLength="51" x="1876" y="1078.6973">«Entity»</text><text fill="#000000" font-family="sans-serif" font-size="14" lengthAdjust="spacing" textLength="102" x="1850.5" y="1096.3066">ideaDto:IdeaDto</text><rect fill="#E2E2F0" height="49.2188" rx="2.5" ry="2.5" style="stroke:#181818;stroke-width:0.5;" width="115" x="1969.5" y="32.3906"/><text fill="#000000" font-family="sans-serif" font-size="14" font-style="italic" lengthAdjust="spacing" textLength="84" x="1985" y="53.9238">«Repository»</text><text fill="#000000" font-family="sans-serif" font-size="14" lengthAdjust="spacing" textLength="101" x="1976.5" y="71.5332">:UserRepository</text><rect fill="#E2E2F0" height="49.2188" rx="2.5" ry="2.5" style="stroke:#181818;stroke-width:0.5;" width="115" x="1969.5" y="1057.1641"/><text fill="#000000" font-family="sans-serif" font-size="14" font-style="italic" lengthAdjust="spacing" textLength="84" x="1985" y="1078.6973">«Repository»</text><text fill="#000000" font-family="sans-serif" font-size="14" lengthAdjust="spacing" textLength="101" x="1976.5" y="1096.3066">:UserRepository</text><rect fill="#E2E2F0" height="49.2188" rx="2.5" ry="2.5" style="stroke:#181818;stroke-width:0.5;" width="170" x="2094.5" y="32.3906"/><text fill="#000000" font-family="sans-serif" font-size="14" font-style="italic" lengthAdjust="spacing" textLength="84" x="2137.5" y="53.9238">«Repository»</text><text fill="#000000" font-family="sans-serif" font-size="14" lengthAdjust="spacing" textLength="156" x="2101.5" y="71.5332">:YouthCouncilRepository</text><rect fill="#E2E2F0" height="49.2188" rx="2.5" ry="2.5" style="stroke:#181818;stroke-width:0.5;" width="170" x="2094.5" y="1057.1641"/><text fill="#000000" font-family="sans-serif" font-size="14" font-style="italic" lengthAdjust="spacing" textLength="84" x="2137.5" y="1078.6973">«Repository»</text><text fill="#000000" font-family="sans-serif" font-size="14" lengthAdjust="spacing" textLength="156" x="2101.5" y="1096.3066">:YouthCouncilRepository</text><rect fill="#E2E2F0" height="49.2188" rx="2.5" ry="2.5" style="stroke:#181818;stroke-width:0.5;" width="184" x="2274.5" y="32.3906"/><text fill="#000000" font-family="sans-serif" font-size="14" font-style="italic" lengthAdjust="spacing" textLength="51" x="2341" y="53.9238">«Entity»</text><text fill="#000000" font-family="sans-serif" font-size="14" lengthAdjust="spacing" textLength="170" x="2281.5" y="71.5332">youthCouncil:YouthCouncil</text><rect fill="#E2E2F0" height="49.2188" rx="2.5" ry="2.5" style="stroke:#181818;stroke-width:0.5;" width="184" x="2274.5" y="1057.1641"/><text fill="#000000" font-family="sans-serif" font-size="14" font-style="italic" lengthAdjust="spacing" textLength="51" x="2341" y="1078.6973">«Entity»</text><text fill="#000000" font-family="sans-serif" font-size="14" lengthAdjust="spacing" textLength="170" x="2281.5" y="1096.3066">youthCouncil:YouthCouncil</text><rect fill="#FFFFFF" height="956.5547" style="stroke:#181818;stroke-width:1.0;" width="10" x="362" y="92.6094"/><rect fill="#FFFFFF" height="732.3359" style="stroke:#181818;stroke-width:1.0;" width="10" x="891" y="207.8945"/><rect fill="#FFFFFF" height="425.5469" style="stroke:#181818;stroke-width:1.0;" width="10" x="1076" y="331.1797"/><rect fill="#FFFFFF" height="30" style="stroke:#181818;stroke-width:1.0;" width="10" x="1227" y="606.1563"/><rect fill="#FFFFFF" height="30" style="stroke:#181818;stroke-width:1.0;" width="10" x="2022" y="421.8828"/><rect fill="#FFFFFF" height="30" style="stroke:#181818;stroke-width:1.0;" width="10" x="2174.5" y="361.5313"/><rect fill="#FFFFFF" height="30" style="stroke:#181818;stroke-width:1.0;" width="10" x="2361.5" y="726.7266"/><polygon fill="#181818" points="879,203.8945,889,207.8945,879,211.8945,883,207.8945" style="stroke:#181818;stroke-width:1.0;"/><line style="stroke:#181818;stroke-width:1.0;" x1="372" x2="885" y1="207.8945" y2="207.8945"/><text fill="#000000" font-family="sans-serif" font-size="13" lengthAdjust="spacing" textLength="500" x="379" y="203.0381">submitIdea(youthCouncilId: long, newIdeaDto: NewIdeaDto): ResponseEntity&lt;IdeaDto&gt;</text><path d="M5,97.6094 L5,303.6094 L357,303.6094 L357,107.6094 L347,97.6094 L5,97.6094 " fill="#FEFFDD" style="stroke:#181818;stroke-width:0.5;"/><path d="M347,97.6094 L347,107.6094 L357,107.6094 L347,97.6094 " fill="#FEFFDD" style="stroke:#181818;stroke-width:0.5;"/><text fill="#000000" font-family="sans-serif" font-size="13" lengthAdjust="spacing" textLength="331" x="11" y="116.1045">POST /api/youth-council/{youthCouncilId}/ideas HTTP/1.1</text><text fill="#000000" font-family="sans-serif" font-size="13" lengthAdjust="spacing" textLength="40" x="43" y="132.4561">body: {</text><text fill="#000000" font-family="sans-serif" font-size="13" lengthAdjust="spacing" textLength="4" x="43" y="148.8076">{</text><text fill="#000000" font-family="sans-serif" font-size="13" lengthAdjust="spacing" textLength="186" x="43" y="165.1592">"description": "Idea description",</text><text fill="#000000" font-family="sans-serif" font-size="13" lengthAdjust="spacing" textLength="64" x="43" y="181.5107">"images": [</text><text fill="#000000" font-family="sans-serif" font-size="13" lengthAdjust="spacing" textLength="137" x="43" y="197.8623">"IFAOIUFDUOI88uuuu",</text><text fill="#000000" font-family="sans-serif" font-size="13" lengthAdjust="spacing" textLength="125" x="43" y="214.2139">"wadadadsaAA9990",</text><text fill="#000000" font-family="sans-serif" font-size="13" lengthAdjust="spacing" textLength="8" x="43" y="230.5654">],</text><text fill="#000000" font-family="sans-serif" font-size="13" lengthAdjust="spacing" textLength="75" x="43" y="246.917">"themeId": 1,</text><text fill="#000000" font-family="sans-serif" font-size="13" lengthAdjust="spacing" textLength="71" x="43" y="263.2686">"authorId": 5</text><text fill="#000000" font-family="sans-serif" font-size="13" lengthAdjust="spacing" textLength="4" x="43" y="279.6201">}</text><text fill="#000000" font-family="sans-serif" font-size="13" lengthAdjust="spacing" textLength="4" x="43" y="295.9717">}</text><polygon fill="#181818" points="1064,327.1797,1074,331.1797,1064,335.1797,1068,331.1797" style="stroke:#181818;stroke-width:1.0;"/><line style="stroke:#181818;stroke-width:1.0;" x1="901" x2="1070" y1="331.1797" y2="331.1797"/><text fill="#000000" font-family="sans-serif" font-size="13" lengthAdjust="spacing" textLength="156" x="908" y="326.3232">createIdea(idea: Idea): Idea</text><polygon fill="#181818" points="2162.5,357.5313,2172.5,361.5313,2162.5,365.5313,2166.5,361.5313" style="stroke:#181818;stroke-width:1.0;"/><line style="stroke:#181818;stroke-width:1.0;" x1="1086" x2="2168.5" y1="361.5313" y2="361.5313"/><text fill="#000000" font-family="sans-serif" font-size="13" lengthAdjust="spacing" textLength="347" x="1093" y="356.6748">youthCouncil = findById(youthCouncilId: long): YouthCouncil</text><polygon fill="#181818" points="2010,417.8828,2020,421.8828,2010,425.8828,2014,421.8828" style="stroke:#181818;stroke-width:1.0;"/><line style="stroke:#181818;stroke-width:1.0;" x1="1086" x2="2016" y1="421.8828" y2="421.8828"/><text fill="#000000" font-family="sans-serif" font-size="13" lengthAdjust="spacing" textLength="208" x="1093" y="417.0264">user = findById(authorId: long): User</text><path d="M108,466.8828 L169,466.8828 L169,475.2344 L159,485.2344 L108,485.2344 L108,466.8828 " fill="#EEEEEE" style="stroke:#000000;stroke-width:1.5;"/><rect fill="none" height="574.2813" style="stroke:#000000;stroke-width:1.5;" width="2360.5" x="108" y="466.8828"/><text fill="#000000" font-family="sans-serif" font-size="13" font-weight="bold" lengthAdjust="spacing" textLength="16" x="123" y="481.3779">alt</text><text fill="#000000" font-family="sans-serif" font-size="11" font-weight="bold" lengthAdjust="spacing" textLength="203" x="184" y="480.3018">[user == null OR youthCouncil == null]</text><polygon fill="#181818" points="1286.5,503.5859,1296.5,507.5859,1286.5,511.5859,1290.5,507.5859" style="stroke:#181818;stroke-width:1.0;"/><line style="stroke:#181818;stroke-width:1.0;stroke-dasharray:2.0,2.0;" x1="901" x2="1292.5" y1="507.5859" y2="507.5859"/><text fill="#000000" font-family="sans-serif" font-size="13" lengthAdjust="spacing" textLength="224" x="908" y="502.7295">&lt;&lt;create&gt;&gt; (HttpStatus.NOT_FOUND)</text><rect fill="#E2E2F0" height="49.2188" rx="2.5" ry="2.5" style="stroke:#181818;stroke-width:0.5;" width="276" x="1298.5" y="485.2344"/><text fill="#000000" font-family="sans-serif" font-size="14" font-style="italic" lengthAdjust="spacing" textLength="51" x="1411" y="506.7676">«Entity»</text><text fill="#000000" font-family="sans-serif" font-size="14" lengthAdjust="spacing" textLength="262" x="1305.5" y="524.377">responseEntity:ResponseEntity&lt;IdeaDto&gt;</text><polygon fill="#181818" points="383,566.8047,373,570.8047,383,574.8047,379,570.8047" style="stroke:#181818;stroke-width:1.0;"/><line style="stroke:#181818;stroke-width:1.0;stroke-dasharray:2.0,2.0;" x1="377" x2="890" y1="570.8047" y2="570.8047"/><text fill="#000000" font-family="sans-serif" font-size="13" lengthAdjust="spacing" textLength="203" x="389" y="565.9482">responseEntity: ResponseEntity&lt;&gt;</text><path d="M193,550.4531 L193,576.4531 L357,576.4531 L357,560.4531 L347,550.4531 L193,550.4531 " fill="#FEFFDD" style="stroke:#181818;stroke-width:0.5;"/><path d="M347,550.4531 L347,560.4531 L357,560.4531 L347,550.4531 " fill="#FEFFDD" style="stroke:#181818;stroke-width:0.5;"/><text fill="#000000" font-family="sans-serif" font-size="13" lengthAdjust="spacing" textLength="143" x="199" y="568.9482">HTTP/1.1 404 Not Found</text><line style="stroke:#000000;stroke-width:1.0;stroke-dasharray:2.0,2.0;" x1="108" x2="2468.5" y1="582.8047" y2="582.8047"/><polygon fill="#181818" points="1215,602.1563,1225,606.1563,1215,610.1563,1219,606.1563" style="stroke:#181818;stroke-width:1.0;"/><line style="stroke:#181818;stroke-width:1.0;" x1="1086" x2="1221" y1="606.1563" y2="606.1563"/><text fill="#000000" font-family="sans-serif" font-size="13" lengthAdjust="spacing" textLength="122" x="1093" y="601.2998">save(idea: Idea): Idea</text><polygon fill="#181818" points="1831.5,662.5078,1841.5,666.5078,1831.5,670.5078,1835.5,666.5078" style="stroke:#181818;stroke-width:1.0;"/><line style="stroke:#181818;stroke-width:1.0;stroke-dasharray:2.0,2.0;" x1="1086" x2="1837.5" y1="666.5078" y2="666.5078"/><text fill="#000000" font-family="sans-serif" font-size="13" lengthAdjust="spacing" textLength="136" x="1093" y="661.6514">&lt;&lt;create&gt;&gt; (idea: Idea)</text><rect fill="#E2E2F0" height="49.2188" rx="2.5" ry="2.5" style="stroke:#181818;stroke-width:0.5;" width="116" x="1843.5" y="644.1563"/><text fill="#000000" font-family="sans-serif" font-size="14" font-style="italic" lengthAdjust="spacing" textLength="51" x="1876" y="665.6895">«Entity»</text><text fill="#000000" font-family="sans-serif" font-size="14" lengthAdjust="spacing" textLength="102" x="1850.5" y="683.2988">ideaDto:IdeaDto</text><polygon fill="#181818" points="2349.5,722.7266,2359.5,726.7266,2349.5,730.7266,2353.5,726.7266" style="stroke:#181818;stroke-width:1.0;"/><line style="stroke:#181818;stroke-width:1.0;" x1="1086" x2="2355.5" y1="726.7266" y2="726.7266"/><text fill="#000000" font-family="sans-serif" font-size="13" lengthAdjust="spacing" textLength="109" x="1093" y="721.8701">addIdea(idea: Idea)</text><polygon fill="#181818" points="1286.5,783.0781,1296.5,787.0781,1286.5,791.0781,1290.5,787.0781" style="stroke:#181818;stroke-width:1.0;"/><line style="stroke:#181818;stroke-width:1.0;stroke-dasharray:2.0,2.0;" x1="901" x2="1292.5" y1="787.0781" y2="787.0781"/><text fill="#000000" font-family="sans-serif" font-size="13" lengthAdjust="spacing" textLength="311" x="908" y="782.2217">&lt;&lt;create&gt;&gt; (ideaDto: IdeaDto, HttpStatus.CREATED)</text><rect fill="#E2E2F0" height="49.2188" rx="2.5" ry="2.5" style="stroke:#181818;stroke-width:0.5;" width="276" x="1298.5" y="764.7266"/><text fill="#000000" font-family="sans-serif" font-size="14" font-style="italic" lengthAdjust="spacing" textLength="51" x="1411" y="786.2598">«Entity»</text><text fill="#000000" font-family="sans-serif" font-size="14" lengthAdjust="spacing" textLength="262" x="1305.5" y="803.8691">responseEntity:ResponseEntity&lt;IdeaDto&gt;</text><polygon fill="#181818" points="383,936.2305,373,940.2305,383,944.2305,379,940.2305" style="stroke:#181818;stroke-width:1.0;"/><line style="stroke:#181818;stroke-width:1.0;stroke-dasharray:2.0,2.0;" x1="377" x2="895" y1="940.2305" y2="940.2305"/><text fill="#000000" font-family="sans-serif" font-size="13" lengthAdjust="spacing" textLength="203" x="389" y="935.374">responseEntity: ResponseEntity&lt;&gt;</text><path d="M118,829.9453 L118,1035.9453 L357,1035.9453 L357,839.9453 L347,829.9453 L118,829.9453 " fill="#FEFFDD" style="stroke:#181818;stroke-width:0.5;"/><path d="M347,829.9453 L347,839.9453 L357,839.9453 L347,829.9453 " fill="#FEFFDD" style="stroke:#181818;stroke-width:0.5;"/><text fill="#000000" font-family="sans-serif" font-size="13" lengthAdjust="spacing" textLength="102" x="124" y="848.4404">HTTP/1.1 200 OK</text><text fill="#000000" font-family="sans-serif" font-size="13" lengthAdjust="spacing" textLength="175" x="124" y="864.792">Content-Type: application/json</text><text fill="#000000" font-family="sans-serif" font-size="13" lengthAdjust="spacing" textLength="4" x="156" y="881.1436">{</text><text fill="#000000" font-family="sans-serif" font-size="13" lengthAdjust="spacing" textLength="39" x="156" y="897.4951">"id": 1,</text><text fill="#000000" font-family="sans-serif" font-size="13" lengthAdjust="spacing" textLength="186" x="156" y="913.8467">"description": "Idea description",</text><text fill="#000000" font-family="sans-serif" font-size="13" lengthAdjust="spacing" textLength="64" x="156" y="930.1982">"images": [</text><text fill="#000000" font-family="sans-serif" font-size="13" lengthAdjust="spacing" textLength="137" x="156" y="946.5498">"IFAOIUFDUOI88uuuu",</text><text fill="#000000" font-family="sans-serif" font-size="13" lengthAdjust="spacing" textLength="125" x="156" y="962.9014">"wadadadsaAA9990",</text><text fill="#000000" font-family="sans-serif" font-size="13" lengthAdjust="spacing" textLength="8" x="156" y="979.2529">],</text><text fill="#000000" font-family="sans-serif" font-size="13" lengthAdjust="spacing" textLength="75" x="156" y="995.6045">"themeId": 1,</text><text fill="#000000" font-family="sans-serif" font-size="13" lengthAdjust="spacing" textLength="71" x="156" y="1011.9561">"authorId": 5</text><text fill="#000000" font-family="sans-serif" font-size="13" lengthAdjust="spacing" textLength="4" x="156" y="1028.3076">}</text><!--MD5=[7a0c27f2ae0772f4292c57a92118e7cf]
@startuml

Actor WebUser
participant ":IdeaController" as IdeaController <<Controller>>
participant ":IdeaService" as IdeaService <<Service>>
participant ":IdeaRepository" as IdeaRepository <<Repository>>
participant "responseEntity:ResponseEntity<IdeaDto>" as ResponseEntity <<Entity>>
participant "newIdeaDto:NewIdeaDto" as NewIdeaDto <<Entity>>
participant "idea:Idea" as Idea <<Entity>>
participant "ideaDto:IdeaDto" as IdeaDto <<Entity>>
participant ":UserRepository" as UserRepository <<Repository>>
participant ":YouthCouncilRepository" as YouthCouncilRepository <<Repository>>
participant "youthCouncil:YouthCouncil" as YouthCouncil <<Entity>>


activate WebUser
WebUser -> IdeaController : submitIdea(youthCouncilId: long, newIdeaDto: NewIdeaDto): ResponseEntity<IdeaDto>
note left
POST /api/youth-council/{youthCouncilId}/ideas HTTP/1.1
        body: {
        {
        "description": "Idea description",
        "images": [
        "IFAOIUFDUOI88uuuu",
        "wadadadsaAA9990",
        ],
        "themeId": 1,
        "authorId": 5
        }
        }
end note
activate IdeaController
IdeaController -> IdeaService : createIdea(idea: Idea): Idea
activate IdeaService
IdeaService -> YouthCouncilRepository : youthCouncil = findById(youthCouncilId: long): YouthCouncil
activate YouthCouncilRepository
deactivate YouthCouncilRepository
IdeaService -> UserRepository : user = findById(authorId: long): User
activate UserRepository
deactivate UserRepository
alt user == null OR youthCouncil == null
create ResponseEntity
IdeaController - -> ResponseEntity: <<create>> (HttpStatus.NOT_FOUND)
IdeaController - -> WebUser : responseEntity: ResponseEntity<>
note left
HTTP/1.1 404 Not Found
end note
else
IdeaService -> IdeaRepository : save(idea: Idea): Idea
activate IdeaRepository
deactivate IdeaRepository
create IdeaDto
IdeaService - -> IdeaDto: <<create>> (idea: Idea)
IdeaService -> YouthCouncil : addIdea(idea: Idea)
activate YouthCouncil
deactivate YouthCouncil
deactivate IdeaService
create ResponseEntity
IdeaController - -> ResponseEntity: <<create>> (ideaDto: IdeaDto, HttpStatus.CREATED)
IdeaController - -> WebUser : responseEntity: ResponseEntity<>
deactivate IdeaController
note left
HTTP/1.1 200 OK
Content-Type: application/json
        {
        "id": 1,
        "description": "Idea description",
        "images": [
        "IFAOIUFDUOI88uuuu",
        "wadadadsaAA9990",
        ],
        "themeId": 1,
        "authorId": 5
        }
    end note
end

@enduml

PlantUML version 1.2022.7(Mon Aug 22 19:01:30 CEST 2022)
(GPL source distribution)
Java Runtime: OpenJDK Runtime Environment
JVM: OpenJDK 64-Bit Server VM
Default Encoding: Cp1252
Language: en
Country: GB
--></g></svg>