<svg xmlns="http://www.w3.org/2000/svg"  viewBox="0 0 80 80" width="80px" height="80px"><path d="M 14 10 C 11.802666 10 10 11.802666 10 14 L 10 66 C 10 68.197334 11.802666 70 14 70 L 66 70 C 68.197334 70 70 68.197334 70 66 L 70 14 C 70 11.802666 68.197334 10 66 10 L 14 10 z M 14 12 L 66 12 C 67.116666 12 68 12.883334 68 14 L 68 66 C 68 67.116666 67.116666 68 66 68 L 14 68 C 12.883334 68 12 67.116666 12 66 L 12 14 C 12 12.883334 12.883334 12 14 12 z M 24 19 C 23.45 19 23 19.45 23 20 C 23 20.55 23.45 21 24 21 C 24.55 21 25 20.55 25 20 C 25 19.45 24.55 19 24 19 z M 28 19 C 27.45 19 27 19.45 27 20 C 27 20.55 27.45 21 28 21 C 28.55 21 29 20.55 29 20 C 29 19.45 28.55 19 28 19 z M 32 19 C 31.45 19 31 19.45 31 20 C 31 20.55 31.45 21 32 21 C 32.55 21 33 20.55 33 20 C 33 19.45 32.55 19 32 19 z M 36 19 C 35.45 19 35 19.45 35 20 C 35 20.55 35.45 21 36 21 C 36.55 21 37 20.55 37 20 C 37 19.45 36.55 19 36 19 z M 40 19 C 39.45 19 39 19.45 39 20 C 39 20.55 39.45 21 40 21 C 40.55 21 41 20.55 41 20 C 41 19.45 40.55 19 40 19 z M 44 19 C 43.45 19 43 19.45 43 20 C 43 20.55 43.45 21 44 21 C 44.55 21 45 20.55 45 20 C 45 19.45 44.55 19 44 19 z M 48 19 C 47.45 19 47 19.45 47 20 C 47 20.55 47.45 21 48 21 C 48.55 21 49 20.55 49 20 C 49 19.45 48.55 19 48 19 z M 52 19 C 51.45 19 51 19.45 51 20 C 51 20.55 51.45 21 52 21 C 52.55 21 53 20.55 53 20 C 53 19.45 52.55 19 52 19 z M 56 19 C 55.45 19 55 19.45 55 20 C 55 20.55 55.45 21 56 21 C 56.55 21 57 20.55 57 20 C 57 19.45 56.55 19 56 19 z M 60.097656 19.005859 C 59.806094 18.976797 59.499063 19.079062 59.289062 19.289062 C 59.109062 19.479063 59 19.74 59 20 C 59 20.26 59.109063 20.520937 59.289062 20.710938 C 59.479062 20.890937 59.74 21 60 21 C 60.13 21 60.260859 20.969922 60.380859 20.919922 C 60.510859 20.869922 60.610937 20.800937 60.710938 20.710938 C 60.890938 20.520937 61 20.26 61 20 C 61 19.94 60.990469 19.870547 60.980469 19.810547 C 60.970469 19.740547 60.949922 19.679141 60.919922 19.619141 C 60.899922 19.559141 60.870078 19.499453 60.830078 19.439453 L 60.710938 19.289062 C 60.610938 19.199063 60.510859 19.130078 60.380859 19.080078 C 60.290859 19.040078 60.194844 19.015547 60.097656 19.005859 z M 19.90625 19.009766 C 19.808594 19.018984 19.711641 19.042578 19.619141 19.080078 C 19.489141 19.130078 19.379062 19.199063 19.289062 19.289062 C 19.109063 19.479063 19 19.74 19 20 C 19 20.06 19.009531 20.129453 19.019531 20.189453 C 19.029531 20.259453 19.050078 20.320859 19.080078 20.380859 C 19.100078 20.440859 19.129922 20.500547 19.169922 20.560547 L 19.289062 20.710938 C 19.379063 20.800937 19.489141 20.869922 19.619141 20.919922 C 19.739141 20.969922 19.87 21 20 21 C 20.26 21 20.520937 20.890937 20.710938 20.710938 L 20.830078 20.560547 C 20.870078 20.500547 20.899922 20.440859 20.919922 20.380859 C 20.949922 20.320859 20.970469 20.259453 20.980469 20.189453 C 20.990469 20.129453 21 20.06 21 20 C 21 19.74 20.890938 19.479063 20.710938 19.289062 C 20.500937 19.079062 20.199219 18.982109 19.90625 19.009766 z M 20 23 C 19.45 23 19 23.45 19 24 C 19 24.55 19.45 25 20 25 C 20.55 25 21 24.55 21 24 C 21 23.45 20.55 23 20 23 z M 60 23 C 59.45 23 59 23.45 59 24 C 59 24.55 59.45 25 60 25 C 60.55 25 61 24.55 61 24 C 61 23.45 60.55 23 60 23 z M 20 27 C 19.45 27 19 27.45 19 28 C 19 28.55 19.45 29 20 29 C 20.55 29 21 28.55 21 28 C 21 27.45 20.55 27 20 27 z M 60 27 C 59.45 27 59 27.45 59 28 C 59 28.55 59.45 29 60 29 C 60.55 29 61 28.55 61 28 C 61 27.45 60.55 27 60 27 z M 20 31 C 19.45 31 19 31.45 19 32 C 19 32.55 19.45 33 20 33 C 20.55 33 21 32.55 21 32 C 21 31.45 20.55 31 20 31 z M 34.417969 31 C 32.530969 31 31 32.530969 31 34.417969 L 31 44.582031 C 31 46.469031 32.530969 48 34.417969 48 L 45.582031 48 C 47.469031 48 49 46.469984 49 44.583984 L 49 34.417969 C 49 32.530969 47.469984 31 45.583984 31 L 34.417969 31 z M 60 31 C 59.45 31 59 31.45 59 32 C 59 32.55 59.45 33 60 33 C 60.55 33 61 32.55 61 32 C 61 31.45 60.55 31 60 31 z M 20 35 C 19.45 35 19 35.45 19 36 C 19 36.55 19.45 37 20 37 C 20.55 37 21 36.55 21 36 C 21 35.45 20.55 35 20 35 z M 60 35 C 59.45 35 59 35.45 59 36 C 59 36.55 59.45 37 60 37 C 60.55 37 61 36.55 61 36 C 61 35.45 60.55 35 60 35 z M 20 39 C 19.45 39 19 39.45 19 40 C 19 40.55 19.45 41 20 41 C 20.55 41 21 40.55 21 40 C 21 39.45 20.55 39 20 39 z M 60 39 C 59.45 39 59 39.45 59 40 C 59 40.55 59.45 41 60 41 C 60.55 41 61 40.55 61 40 C 61 39.45 60.55 39 60 39 z M 20 43 C 19.45 43 19 43.45 19 44 C 19 44.55 19.45 45 20 45 C 20.55 45 21 44.55 21 44 C 21 43.45 20.55 43 20 43 z M 60 43 C 59.45 43 59 43.45 59 44 C 59 44.55 59.45 45 60 45 C 60.55 45 61 44.55 61 44 C 61 43.45 60.55 43 60 43 z M 20 47 C 19.45 47 19 47.45 19 48 C 19 48.55 19.45 49 20 49 C 20.55 49 21 48.55 21 48 C 21 47.45 20.55 47 20 47 z M 60 47 C 59.45 47 59 47.45 59 48 C 59 48.55 59.45 49 60 49 C 60.55 49 61 48.55 61 48 C 61 47.45 60.55 47 60 47 z M 20 51 C 19.45 51 19 51.45 19 52 C 19 52.55 19.45 53 20 53 C 20.55 53 21 52.55 21 52 C 21 51.45 20.55 51 20 51 z M 60 51 C 59.45 51 59 51.45 59 52 C 59 52.55 59.45 53 60 53 C 60.55 53 61 52.55 61 52 C 61 51.45 60.55 51 60 51 z M 20 55 C 19.45 55 19 55.45 19 56 C 19 56.55 19.45 57 20 57 C 20.55 57 21 56.55 21 56 C 21 55.45 20.55 55 20 55 z M 60 55 C 59.45 55 59 55.45 59 56 C 59 56.55 59.45 57 60 57 C 60.55 57 61 56.55 61 56 C 61 55.45 60.55 55 60 55 z M 24 59 C 23.45 59 23 59.45 23 60 C 23 60.55 23.45 61 24 61 C 24.55 61 25 60.55 25 60 C 25 59.45 24.55 59 24 59 z M 28 59 C 27.45 59 27 59.45 27 60 C 27 60.55 27.45 61 28 61 C 28.55 61 29 60.55 29 60 C 29 59.45 28.55 59 28 59 z M 32 59 C 31.45 59 31 59.45 31 60 C 31 60.55 31.45 61 32 61 C 32.55 61 33 60.55 33 60 C 33 59.45 32.55 59 32 59 z M 36 59 C 35.45 59 35 59.45 35 60 C 35 60.55 35.45 61 36 61 C 36.55 61 37 60.55 37 60 C 37 59.45 36.55 59 36 59 z M 40 59 C 39.45 59 39 59.45 39 60 C 39 60.55 39.45 61 40 61 C 40.55 61 41 60.55 41 60 C 41 59.45 40.55 59 40 59 z M 44 59 C 43.45 59 43 59.45 43 60 C 43 60.55 43.45 61 44 61 C 44.55 61 45 60.55 45 60 C 45 59.45 44.55 59 44 59 z M 48 59 C 47.45 59 47 59.45 47 60 C 47 60.55 47.45 61 48 61 C 48.55 61 49 60.55 49 60 C 49 59.45 48.55 59 48 59 z M 52 59 C 51.45 59 51 59.45 51 60 C 51 60.55 51.45 61 52 61 C 52.55 61 53 60.55 53 60 C 53 59.45 52.55 59 52 59 z M 56 59 C 55.45 59 55 59.45 55 60 C 55 60.55 55.45 61 56 61 C 56.55 61 57 60.55 57 60 C 57 59.45 56.55 59 56 59 z M 19.90625 59.005859 C 19.808594 59.015547 19.711641 59.040078 19.619141 59.080078 C 19.489141 59.130078 19.389063 59.199062 19.289062 59.289062 C 19.199063 59.389062 19.130078 59.499141 19.080078 59.619141 C 19.030078 59.739141 19 59.87 19 60 C 19 60.26 19.109063 60.520938 19.289062 60.710938 C 19.479063 60.890938 19.74 61 20 61 C 20.26 61 20.520937 60.890937 20.710938 60.710938 C 20.890937 60.520938 21 60.26 21 60 C 21 59.87 20.969922 59.739141 20.919922 59.619141 C 20.869922 59.499141 20.800937 59.389063 20.710938 59.289062 C 20.500937 59.079063 20.199219 58.976797 19.90625 59.005859 z M 60.097656 59.005859 C 59.806094 58.976797 59.499063 59.079062 59.289062 59.289062 C 59.199063 59.389062 59.130078 59.499141 59.080078 59.619141 C 59.030078 59.739141 59 59.87 59 60 C 59 60.07 59.009531 60.129219 59.019531 60.199219 C 59.029531 60.259219 59.050078 60.320859 59.080078 60.380859 C 59.100078 60.440859 59.129922 60.500781 59.169922 60.550781 C 59.209922 60.610781 59.249063 60.660938 59.289062 60.710938 C 59.479062 60.890938 59.74 61 60 61 C 60.13 61 60.260859 60.969922 60.380859 60.919922 C 60.510859 60.869922 60.610937 60.800938 60.710938 60.710938 C 60.800937 60.620937 60.869922 60.500859 60.919922 60.380859 C 60.949922 60.320859 60.970469 60.259219 60.980469 60.199219 C 60.990469 60.129219 61 60.07 61 60 C 61 59.74 60.890937 59.479062 60.710938 59.289062 C 60.610938 59.199063 60.510859 59.130078 60.380859 59.080078 C 60.290859 59.040078 60.194844 59.015547 60.097656 59.005859 z"/></svg>